<?xml version="1.0" encoding="UTF-8" standalone="no"?>
<!-- Created with Inkscape (http://www.inkscape.org/) -->

<svg
   width="63.000004mm"
   height="88mm"
   viewBox="0 0 63.000004 88"
   version="1.1"
   id="svg1"
   inkscape:version="1.4 (86a8ad7, 2024-10-11)"
   sodipodi:docname="card_back_real.svg"
   xmlns:inkscape="http://www.inkscape.org/namespaces/inkscape"
   xmlns:sodipodi="http://sodipodi.sourceforge.net/DTD/sodipodi-0.dtd"
   xmlns:xlink="http://www.w3.org/1999/xlink"
   xmlns="http://www.w3.org/2000/svg"
   xmlns:svg="http://www.w3.org/2000/svg">
  <sodipodi:namedview
     id="namedview1"
     pagecolor="#505050"
     bordercolor="#eeeeee"
     borderopacity="1"
     inkscape:showpageshadow="0"
     inkscape:pageopacity="0"
     inkscape:pagecheckerboard="0"
     inkscape:deskcolor="#505050"
     inkscape:document-units="mm"
     inkscape:zoom="0.74564394"
     inkscape:cx="119.35992"
     inkscape:cy="165.62865"
     inkscape:window-width="1920"
     inkscape:window-height="1017"
     inkscape:window-x="-8"
     inkscape:window-y="-8"
     inkscape:window-maximized="1"
     inkscape:current-layer="layer1" />
  <defs
     id="defs1">
    <pattern
       inkscape:collect="always"
       xlink:href="#pattern23627-5-5"
       id="pattern23711-2-8"
       patternTransform="matrix(0.5110943,0.55752546,-4.2606771,3.9058447,-4587.2173,7265.197)" />
    <pattern
       inkscape:collect="always"
       xlink:href="#pattern23605-9-7"
       id="pattern23627-5-5"
       patternTransform="matrix(0.13522704,0.14751195,-1.1273042,1.0334214,-1213.7013,1922.2501)" />
    <pattern
       inkscape:collect="always"
       xlink:href="#Strips1_5white-0-4"
       id="pattern23605-9-7"
       patternTransform="matrix(0.30118304,-0.45387313,0.45387313,0.30118304,-1268.9118,1919.5169)" />
    <pattern
       inkscape:stockid="Stripes 1:5 white"
       id="Strips1_5white-0-4"
       patternTransform="translate(0,0) scale(10,10)"
       height="1"
       width="6"
       patternUnits="userSpaceOnUse"
       inkscape:collect="always">
      <rect
         id="rect18414-8-9"
         height="2"
         width="1"
         y="-0.5"
         x="0"
         style="fill:white;stroke:none" />
    </pattern>
  </defs>
  <g
     inkscape:label="Layer 1"
     inkscape:groupmode="layer"
     id="layer1"
     transform="translate(-73.554123,-104.51042)">
    <g
       id="g30292"
       transform="translate(3786.1602,-2749.5009)">
      <g
         id="g15895-1-2"
         style="display:inline"
         transform="translate(-3872.7324,2778.5989)">
        <rect
           style="display:inline;fill:#ffffff;fill-opacity:1;stroke:none;stroke-width:0.265473;stroke-miterlimit:4;stroke-dasharray:none;stroke-opacity:1"
           id="rect13299-3-4"
           width="63.000004"
           height="88"
           x="175.83595"
           y="-127.98602"
           ry="3.0096521"
           rx="3.0134995"
           transform="translate(-15.70963,203.39844)" />
        <rect
           style="display:inline;opacity:1;fill:#d11305;fill-opacity:1;stroke:#d11305"
           id="use15768-4-5"
           width="53.878986"
           height="78.396317"
           x="164.68683"
           y="80.214256"
           inkscape:tile-x0="158.93863"
           inkscape:tile-y0="-119.10042" />
      </g>
      <g
         id="g25664"
         transform="translate(-1743.2399,2918.2216)">
        <rect
           style="display:inline;opacity:1;fill:none;fill-opacity:1;stroke:#fffbfb;stroke-width:0.444041;stroke-miterlimit:4;stroke-dasharray:none;stroke-opacity:1"
           id="rect25642"
           width="51.59428"
           height="76.116035"
           x="-1963.6633"
           y="-58.268349"
           inkscape:label="WHITE INNER BORDER" />
        <g
           transform="translate(-701.90311,-1957.2153)"
           id="g25662">
          <rect
             inkscape:label="WHITE INNER BORDER2"
             style="display:inline;opacity:1;fill:none;fill-opacity:1;stroke:#fffbfb;stroke-width:0.218214;stroke-linejoin:miter;stroke-miterlimit:4;stroke-dasharray:none;stroke-opacity:1"
             id="rect25644"
             width="30.205402"
             height="54.673412"
             x="-1251.0659"
             y="1909.6683" />
          <path
             inkscape:connector-curvature="0"
             style="display:inline;opacity:1;fill:url(#pattern23711-2-8);fill-opacity:1;stroke:#fffbfb;stroke-width:0.824747;stroke-linejoin:miter;stroke-miterlimit:4;stroke-dasharray:none;stroke-opacity:1"
             d="m -4725.7949,7220.2539 v 201.4199 h 108.8769 v -201.4199 z m 54.4394,3.5586 a 44.922102,44.871114 0 0 1 44.9219,44.8711 44.922102,44.871114 0 0 1 -5.209,20.9121 50.634364,50.576899 0 0 1 10.9199,31.3672 50.634364,50.576899 0 0 1 -10.9453,31.3223 44.922103,44.871115 0 0 1 5.2344,20.9589 44.922103,44.871115 0 0 1 -44.9219,44.8711 44.922103,44.871115 0 0 1 -44.9238,-44.8711 44.922103,44.871115 0 0 1 5.209,-20.9121 50.634364,50.576899 0 0 1 -10.9199,-31.3691 50.634364,50.576899 0 0 1 10.9453,-31.3203 44.922102,44.871114 0 0 1 -5.2344,-20.959 44.922102,44.871114 0 0 1 44.9238,-44.8711 z"
             id="path25646"
             transform="scale(0.26458333)" />
          <rect
             ry="0.31696939"
             rx="0.31737459"
             y="1908.9872"
             x="-1251.719"
             height="56.035736"
             width="31.5117"
             id="rect25648"
             style="display:inline;opacity:1;fill:none;fill-opacity:1;stroke:#fffbfb;stroke-width:0.218214;stroke-miterlimit:4;stroke-dasharray:none;stroke-opacity:1"
             inkscape:label="WHITE INNER BORDER" />
          <path
             id="path25650"
             d="m -1246.4669,1945.2889 a 13.38376,13.366672 0 0 1 -2.8801,-8.2839 13.38376,13.366672 0 0 1 2.8757,-8.2783"
             style="display:inline;opacity:0.99;fill:none;fill-opacity:1;stroke:#fffbfb;stroke-width:0.448306;stroke-miterlimit:4;stroke-dasharray:none;stroke-opacity:1"
             inkscape:connector-curvature="0" />
          <path
             id="path25652"
             d="m -1225.4596,1928.7211 a 13.38376,13.366672 0 0 1 2.8802,8.2839 v 0 a 13.38376,13.366672 0 0 1 -2.8758,8.2784"
             style="display:inline;opacity:0.99;fill:none;fill-opacity:1;stroke:#fffbfb;stroke-width:0.448306;stroke-miterlimit:4;stroke-dasharray:none;stroke-opacity:1"
             inkscape:connector-curvature="0" />
          <path
             id="path25654"
             d="m -1246.1118,1944.6637 a 12.719969,12.703729 0 0 1 -2.5714,-7.6587 12.719969,12.703729 0 0 1 2.5734,-7.6612"
             style="display:inline;opacity:0.99;fill:none;fill-opacity:1;stroke:#fffbfb;stroke-width:0.213259;stroke-miterlimit:4;stroke-dasharray:none;stroke-opacity:1"
             inkscape:connector-curvature="0" />
          <path
             id="path25656"
             d="m -1225.8144,1929.3468 a 12.719969,12.703729 0 0 1 2.5711,7.6582 v 0 a 12.719969,12.703729 0 0 1 -2.5728,7.6605"
             style="display:inline;opacity:0.99;fill:none;fill-opacity:1;stroke:#fffbfb;stroke-width:0.213259;stroke-miterlimit:4;stroke-dasharray:none;stroke-opacity:1"
             inkscape:connector-curvature="0" />
          <ellipse
             ry="11.87415"
             rx="11.88933"
             inkscape:label="BOTTOM CIRCLE"
             transform="scale(1,-1)"
             style="display:inline;opacity:0.99;fill:none;fill-opacity:1;stroke:#fffbfb;stroke-width:0.398249;stroke-miterlimit:4;stroke-dasharray:none;stroke-opacity:1"
             id="ellipse25658"
             cx="-1235.963"
             cy="-1950.8373" />
          <ellipse
             ry="11.87415"
             rx="11.88933"
             cy="1923.1726"
             cx="1235.963"
             id="ellipse25660"
             style="display:inline;opacity:1;fill:none;fill-opacity:1;stroke:#ffffff;stroke-width:0.398249;stroke-miterlimit:4;stroke-dasharray:none;stroke-opacity:1"
             transform="scale(-1,1)"
             inkscape:label="TOP CIRCLE" />
        </g>
      </g>
    </g>
  </g>
</svg>
