<?xml version="1.0" encoding="UTF-8" standalone="no"?>
<!-- Created with Inkscape (http://www.inkscape.org/) -->

<svg
   id="svg1326"
   height="278.75964pt"
   width="260.78534pt"
   version="1.1"
   xmlns="http://www.w3.org/2000/svg"
   xmlns:svg="http://www.w3.org/2000/svg"
   xmlns:rdf="http://www.w3.org/1999/02/22-rdf-syntax-ns#"
   xmlns:cc="http://creativecommons.org/ns#"
   xmlns:dc="http://purl.org/dc/elements/1.1/">
  <defs
     id="defs3" />
  <metadata
     id="metadata4">
    <rdf:RDF>
      <cc:Work
         rdf:about="">
        <dc:format>image/svg+xml</dc:format>
        <dc:type
           rdf:resource="http://purl.org/dc/dcmitype/StillImage" />
        <dc:title>Anglo-American card suits</dc:title>
        <dc:creator>
          <cc:Agent>
            <dc:title>Jeff Bonham</dc:title>
          </cc:Agent>
        </dc:creator>
        <cc:license
           rdf:resource="http://creativecommons.org/licenses/by-sa/2.0/" />
        <dc:description>Anglo-American card suits: clubs, diamonds, hearts and spades.  Created in Inkscape.</dc:description>
        <dc:subject>
          <rdf:Bag>
            <rdf:li>anglo-american</rdf:li>
            <rdf:li>cards</rdf:li>
            <rdf:li>club</rdf:li>
            <rdf:li>clubs</rdf:li>
            <rdf:li>diamond</rdf:li>
            <rdf:li>diamonds</rdf:li>
            <rdf:li>heart</rdf:li>
            <rdf:li>hearts</rdf:li>
            <rdf:li>spade</rdf:li>
            <rdf:li>spades</rdf:li>
          </rdf:Bag>
        </dc:subject>
        <dc:source>http://commons.wikimedia.org/wiki/Image:Anglo-American_card_suits.svg</dc:source>
      </cc:Work>
      <cc:License
         rdf:about="http://creativecommons.org/licenses/by-sa/2.0/">
        <cc:permits
           rdf:resource="http://web.resource.org/cc/Reproduction" />
        <cc:permits
           rdf:resource="http://web.resource.org/cc/Distribution" />
        <cc:requires
           rdf:resource="http://web.resource.org/cc/Notice" />
        <cc:requires
           rdf:resource="http://web.resource.org/cc/Attribution" />
        <cc:permits
           rdf:resource="http://web.resource.org/cc/DerivativeWorks" />
        <cc:requires
           rdf:resource="http://web.resource.org/cc/ShareAlike" />
      </cc:License>
    </rdf:RDF>
  </metadata>
  <g
     id="layer1"
     transform="translate(-45,-536.01917)">
    <path
       id="path30"
       d="m 216.50043,906.61239 c -0.3432,-0.61825 -1.81867,-5.08821 -3.27883,-9.93328 C 203.96781,865.97319 186.78919,834.88002 158.02135,796.767 147.21332,782.44803 137.04027,769.76836 109.53195,736.32989 77.680663,697.61227 68.557087,685.20914 59.344127,668.10174 53.903664,657.99946 48.265682,642.62811 46.41034,632.83915 c -1.854284,-9.78328 -1.884514,-25.76677 -0.06449,-34.08951 7.403277,-33.85415 37.474711,-59.39471 73.43295,-62.36878 41.19287,-3.40701 76.23264,17.40237 94.64341,56.20672 l 4.11116,8.66507 3.09417,-6.84536 c 4.59763,-10.17145 9.02537,-17.05079 16.49892,-25.63414 19.02798,-21.85364 41.67355,-32.55863 68.95442,-32.59608 12.21998,-0.0168 19.2223,0.99749 29.63542,4.29255 15.57394,4.92811 27.29757,12.6053 37.73867,24.71314 27.20989,31.55337 23.98818,74.53993 -9.53244,127.1876 -7.81932,12.2811 -21.92763,30.452 -41.32995,53.23123 -22.34309,26.23184 -33.26023,39.56342 -44.43732,54.26515 -26.79149,35.24004 -44.8099,67.26021 -54.72093,97.24342 -1.51191,4.57392 -3.09592,8.83598 -3.52003,9.47125 -0.98487,1.47524 -3.60189,1.49361 -4.41387,0.031 z"
       style="fill:#ff0000;fill-opacity:1" />
  </g>
</svg>
