<?xml version="1.0" encoding="UTF-8" standalone="no"?>
<!-- Created with Inkscape (http://www.inkscape.org/) -->

<svg
   width="201.1268mm"
   height="79.10495mm"
   viewBox="0 0 201.1268 79.10495"
   version="1.1"
   id="svg1"
   xmlns="http://www.w3.org/2000/svg"
   xmlns:svg="http://www.w3.org/2000/svg">
  <defs
     id="defs1" />
  <g
     id="layer1"
     transform="translate(-3.7702819,-81.402766)">
    <path
       style="fill:#d4aa00;stroke-width:1.221"
       id="path1"
       d="M 49.825679,92.447522 C 48.551806,91.160916 47.196737,89.909675 45.62126,88.992751 41.551926,86.62441 36.672475,82.993803 31.609585,81.862315 30.55915,81.627556 29.4788,81.555949 28.413411,81.402766 c -1.093872,0.02728 -2.195508,-0.0511 -3.28161,0.08185 -3.099558,0.379416 -6.040316,1.652054 -8.489641,3.576151 -1.845718,1.449927 -2.189512,2.114386 -3.585005,3.917707 -0.357556,0.727969 -0.816905,1.41425 -1.07267,2.183907 -0.524913,1.579587 -0.607624,3.176125 0.0377,4.752613 1.415158,3.457167 4.925737,5.583746 7.764364,7.692896 4.018292,3.01863 9.462908,6.12618 11.958874,10.67238 1.41691,2.58078 1.131702,3.25795 1.275813,6.09818 -0.278723,1.09845 -0.408864,2.24574 -0.836168,3.29536 -2.152611,5.28761 -7.197255,9.10901 -12.196412,11.48512 -1.296218,0.6161 -2.677217,1.03515 -4.015826,1.55272 -3.293057,0.99501 -6.6457233,1.21309 -10.0444435,0.79316 -0.726013,-0.0897 -1.4387364,-0.26571 -2.1581046,-0.39857 0,0 8.2321171,6.15651 8.2321171,6.15651 v 0 c 0.680216,0.0617 1.358129,0.15927 2.040649,0.1852 3.367086,0.12788 6.658507,-0.31875 9.850535,-1.43775 1.331879,-0.57204 2.701799,-1.06257 3.995636,-1.71611 5.126376,-2.58943 10.482733,-6.54274 12.90348,-11.93739 0.500687,-1.11577 0.7,-2.34363 1.049999,-3.51544 -0.02641,-3.04996 0.317817,-3.84716 -1.113878,-6.66455 -2.43051,-4.78294 -7.909901,-7.9388 -12.049098,-11.04216 -2.522518,-1.83227 -5.961327,-3.89832 -7.457668,-6.79317 -1.195452,-2.312746 -0.500965,-4.050829 0.569996,-6.173313 1.272464,-1.717575 1.556417,-2.33194 3.292188,-3.692803 2.319383,-1.818418 5.116407,-2.936092 8.059685,-3.173815 1.058563,-0.0855 2.123657,0.03937 3.185485,0.05906 1.047261,0.206372 2.114167,0.330409 3.141782,0.619114 0.991417,0.278537 3.696194,1.724766 2.895579,1.077068 -1.898211,-1.535657 -4.154768,-2.566736 -6.261812,-3.800353 -0.626872,-0.367017 1.23535,0.767583 1.819434,1.19946 0.432842,0.320048 0.831064,0.685434 1.225375,1.051904 0.249129,0.231534 0.468379,0.493268 0.702567,0.739902 z" />
    <path
       style="fill:#d4aa00;stroke-width:1.221"
       id="path2"
       d="m 56.023136,84.339458 c 0.360267,5.147633 0.424395,10.311498 0.59476,15.467745 0.172251,8.505537 0.06135,17.013487 -0.18083,25.516307 -0.150397,3.57825 -0.315174,7.15175 -0.07438,10.72818 0.21005,2.35758 0.346086,4.72087 0.399558,7.08708 0,0 9.542433,4.81429 9.542433,4.81429 v 0 c -0.136075,-2.40166 -0.332015,-4.79866 -0.534797,-7.19563 -0.295499,-3.63668 -0.370281,-7.28344 -0.491614,-10.92911 -0.237053,-8.56432 -0.355364,-17.13365 -0.180829,-25.70057 0.169391,-4.95415 0.227211,-9.917 0.594762,-14.861655 z" />
    <path
       style="fill:#d4aa00;stroke-width:1.221"
       id="path3"
       d="m 82.274372,86.984286 c 0.451509,4.212651 0.555032,8.452236 0.683104,12.683947 0.173,7.010137 0.470569,14.015897 0.638871,21.026467 0.129807,6.4853 0.257288,12.97021 0.780245,19.43731 0.400778,3.19024 0.551239,6.42776 1.271326,9.56917 0,0 9.665102,4.60205 9.665102,4.60205 v 0 c -0.09904,-0.30861 -0.53081,-1.64416 -0.591952,-1.88144 -0.66053,-2.56341 -0.897853,-5.22191 -1.359646,-7.82204 -0.299268,-2.59165 -0.41361,-3.29154 -0.577504,-5.95563 -0.276484,-4.49425 -0.26181,-9.00303 -0.400648,-13.50205 -0.208891,-6.98729 -0.624046,-13.97306 -0.55259,-20.96515 0.03415,-4.09308 0.03472,-8.186733 0.08636,-12.279451 z" />
    <path
       style="fill:#d4aa00;stroke-width:1.221"
       id="path4"
       d="m 57.553616,108.96366 c 1.751594,1.63598 3.618018,3.14325 5.505217,4.61856 2.206125,1.7563 4.431107,3.48329 6.707605,5.14769 2.108497,1.51695 4.215855,3.03579 6.348942,4.51811 1.278953,0.87981 2.529435,1.80078 3.815088,2.67069 0.567457,0.40642 1.128617,0.82147 1.689068,1.23745 0,0 10.028645,3.94799 10.028645,3.94799 v 0 c -0.590399,-0.38649 -1.149644,-0.80881 -1.717879,-1.22721 -1.256363,-0.97428 -2.63358,-1.79216 -3.913491,-2.73904 -2.19078,-1.48737 -4.35682,-3.00742 -6.508676,-4.55083 -2.268353,-1.63851 -4.488154,-3.33482 -6.660952,-5.09779 -1.813181,-1.37503 -3.605726,-2.78541 -5.247036,-4.36421 z" />
    <path
       style="fill:#d4aa00;stroke-width:1.221"
       id="path5"
       d="m 111.95338,149.83992 c -0.14331,-1.33832 -0.39738,-3.64901 -0.45393,-4.6838 -0.38249,-6.99832 0.0172,-14.0403 0.31634,-21.03319 0.25195,-4.60261 0.61961,-9.20794 1.35526,-13.76188 0.33034,-2.04489 0.71126,-4.02394 1.36452,-5.98995 0.22709,-0.68345 0.54135,-1.33478 0.81203,-2.00216 0.31462,-0.48613 0.5701,-1.01611 0.94386,-1.45839 1.82281,-2.15696 4.88089,-2.44688 7.48797,-2.717546 1.83664,-0.07892 3.67786,0.173493 5.38724,0.880205 0.64384,0.266184 2.46421,1.300301 1.85962,0.954091 -8.13424,-4.658009 -8.62948,-5.374005 -4.5323,-1.790809 3.33704,3.598139 5.87334,7.844379 7.47951,12.483109 1.04178,3.0087 1.28177,4.63439 1.94237,7.75695 1.21829,7.20593 1.50736,14.52682 1.64182,21.82096 0.1449,3.13635 -0.0169,6.28298 0.14731,9.41773 0.0739,1.01389 0.0358,0.52694 0.11317,1.46095 0,0 9.64834,4.7831 9.64834,4.7831 v 0 c -0.12993,-0.94401 -0.0634,-0.4539 -0.19903,-1.47038 -0.36389,-3.21689 -0.55288,-6.45451 -0.78439,-9.68258 -0.37406,-7.39702 -0.86539,-14.80196 -1.91767,-22.13736 -0.58125,-3.02667 -0.85244,-4.93784 -1.79079,-7.87143 -1.4952,-4.67448 -3.94174,-8.97263 -7.04494,-12.76104 -4.74019,-4.949549 -1.79257,-2.254459 -12.74287,-8.40523 -2.33816,-1.313344 -5.06553,-1.64239 -7.69444,-1.44961 -2.90895,0.400503 -6.11996,0.980729 -7.98225,3.530502 -0.37943,0.519507 -0.61516,1.130046 -0.92275,1.695072 -0.23166,0.731441 -0.50725,1.450396 -0.69499,2.194327 -0.51012,2.021469 -0.799,4.242059 -1.03025,6.298769 -0.52435,4.66362 -0.75956,9.35351 -0.97394,14.03934 -0.21266,5.42023 -0.40172,10.84052 -0.72981,16.2554 -0.47218,7.79313 -0.0974,1.39481 -0.57408,7.50583 -0.032,0.4101 -0.0403,0.82171 -0.0604,1.23257 z" />
    <path
       style="fill:#d4aa00;stroke-width:1.221"
       id="path6"
       d="m 110.57257,137.20678 c 6.19666,-1.46409 12.3892,-2.93706 18.54659,-4.56132 5.48129,-1.41954 10.88646,-3.1086 16.31429,-4.71524 0,0 -8.10947,-5.51479 -8.10947,-5.51479 v 0 c -5.26093,1.83391 -10.56038,3.56591 -15.98133,4.87345 -6.44131,1.60976 -12.95476,3.14191 -19.59427,3.6282 z" />
    <path
       style="fill:#d4aa00;stroke-width:1.221"
       id="path7"
       d="m 148.59546,90.905916 c 0.3571,2.14865 0.35808,4.336166 0.46865,6.506533 0.10029,2.941271 0.38959,5.854501 0.84075,8.761321 0.54802,3.59844 1.11506,7.19341 1.56213,10.80609 0.45764,3.93244 0.70301,7.8812 0.92326,11.83226 0.12762,3.78818 0.43582,7.56366 0.72069,11.34191 0.17641,2.76372 0.30667,5.52981 0.4703,8.29445 0.0745,1.80197 0.23654,3.59978 0.41325,5.39425 0,0 9.54541,4.72899 9.54541,4.72899 v 0 c -0.22876,-1.78639 -0.3612,-3.58608 -0.50123,-5.38122 -0.19631,-2.79375 -0.38613,-5.58707 -0.59127,-8.38005 -0.3671,-3.78718 -0.73812,-7.57206 -0.86061,-11.37751 -0.22564,-3.9583 -0.35992,-7.9221 -0.83768,-11.86202 -0.41758,-3.61173 -0.96449,-7.20397 -1.47938,-10.80264 -0.42768,-2.85748 -0.6848,-5.71847 -0.76056,-8.60792 -0.12437,-2.14 -0.14013,-4.28579 -0.17818,-6.428888 z" />
    <path
       style="fill:#d4aa00;stroke-width:1.221"
       id="path9"
       d="m 149.74341,93.983819 c 1.92611,2.410868 3.82813,4.841267 5.66901,7.317831 2.11466,2.88024 3.94728,5.95 5.9183,8.92669 1.07131,1.61793 2.16699,3.21959 3.24714,4.83163 2.16937,3.19309 4.19274,6.47839 6.20628,9.77024 0.18092,0.30208 0.36185,0.60417 0.54277,0.90625 0,0 9.72337,4.29384 9.72337,4.29384 v 0 c -0.20163,-0.31641 -0.40326,-0.63281 -0.60489,-0.94922 -2.21624,-3.34509 -4.39427,-6.71556 -6.68935,-10.00834 -1.07792,-1.60594 -2.17748,-3.19741 -3.24301,-4.81159 -1.94057,-2.93978 -3.69561,-5.99849 -5.70778,-8.89178 -1.66538,-2.37492 -3.39835,-4.70213 -5.08699,-7.059489 z" />
    <path
       style="fill:#d4aa00;stroke-width:1.221"
       id="path11"
       d="m 181.25152,128.58041 c 1.20584,-1.99069 2.84655,-3.658 4.3317,-5.43531 1.77898,-2.11384 3.45308,-4.3138 5.11502,-6.5201 1.85904,-2.57404 3.75443,-5.1212 5.67509,-7.65036 1.16062,-1.5484 2.11815,-3.23295 3.20152,-4.83322 0.52669,-0.71239 0.96536,-1.49301 1.51852,-2.18509 0.43472,-0.51445 0.7983,-1.06126 1.10291,-1.66363 0,0 -9.45922,-5.390951 -9.45922,-5.390951 v 0 c -0.27226,0.539993 -0.62511,1.014341 -0.99694,1.4893 -0.5451,0.732552 -0.95166,1.562145 -1.4535,2.324513 -1.00578,1.623078 -1.88825,3.321038 -2.96074,4.903118 -1.83334,2.59052 -3.7075,5.14346 -5.68765,7.62498 -1.65737,2.18444 -3.30873,4.37561 -5.04754,6.49617 -1.53883,1.81381 -3.20993,3.50895 -4.73766,5.33335 z" />
    <path
       style="fill:#d4aa00;stroke-width:1.221"
       id="path12"
       d="m 191.60593,96.049279 c 0.24494,1.822415 0.3636,3.661634 0.5154,5.494381 0.12944,1.64589 0.36951,3.27853 0.50079,4.92455 0.0833,2.05764 0.19081,4.11264 0.31016,6.16858 0.13866,2.1907 0.16017,4.38596 0.2278,6.57927 0.15676,2.12221 0.25044,4.24603 0.28587,6.37359 0.004,1.78878 0.18377,3.56972 0.27809,5.35461 0.16894,1.78426 0.32656,3.56715 0.41288,5.35754 0.0181,1.89854 0.16934,3.7902 0.28218,5.68436 0.0822,1.82189 0.1238,3.64203 0.24911,5.46161 0.12358,1.6142 0.1828,3.2315 0.19733,4.85002 -0.0136,0.98964 0.002,1.97329 0.13153,2.95493 0.0387,0.38755 0.0281,0.21258 0.0393,0.52442 0,0 9.86071,4.73058 9.86071,4.73058 v 0 c -0.12977,-0.25152 -0.0669,-0.0997 -0.15732,-0.46717 -0.15287,-0.95623 -0.28649,-1.89677 -0.24722,-2.87078 -0.0747,-1.64932 -0.16753,-3.29796 -0.28803,-4.94458 -0.1226,-1.81408 -0.14411,-3.63015 -0.2349,-5.44576 -0.11747,-1.88827 -0.3034,-3.77298 -0.29478,-5.66678 -0.0601,-1.78979 -0.16875,-3.57697 -0.37932,-5.35605 -0.0974,-1.78413 -0.28673,-3.56246 -0.33267,-5.34811 -0.0721,-2.13795 -0.14627,-4.27747 -0.29899,-6.41122 -0.1583,-2.19315 -0.0647,-4.39732 -0.23284,-6.59153 -0.12467,-2.0465 -0.22411,-4.09127 -0.24479,-6.14177 -0.0824,-1.66222 -0.28468,-3.30671 -0.48891,-4.95686 -0.19922,-1.80433 -0.38649,-3.60999 -0.37432,-5.42814 z" />
  </g>
</svg>
